<svg width="1440" height="149" viewBox="0 0 1440 149" fill="none" xmlns="http://www.w3.org/2000/svg">
<g clip-path="url(#clip0_1_1544)">
<path d="M405.786 114.113C397.622 114.113 390.979 111.441 385.858 106.098C380.737 100.717 378.177 93.5361 378.177 84.5557V82.6631C378.177 76.6885 379.309 71.3633 381.572 66.6875C383.873 61.9746 387.064 58.3008 391.146 55.666C395.266 52.9941 399.719 51.6582 404.506 51.6582C412.336 51.6582 418.422 54.2373 422.764 59.3955C427.105 64.5537 429.276 71.9385 429.276 81.5498V85.8359H388.475C388.623 91.7734 390.349 96.5791 393.651 100.253C396.991 103.89 401.222 105.708 406.343 105.708C409.979 105.708 413.06 104.966 415.583 103.481C418.106 101.997 420.314 100.03 422.207 97.5811L428.497 102.479C423.45 110.235 415.88 114.113 405.786 114.113ZM404.506 60.1191C400.35 60.1191 396.861 61.6406 394.041 64.6836C391.221 67.6895 389.477 71.9199 388.809 77.375H418.979V76.5957C418.682 71.3633 417.271 67.3184 414.748 64.4609C412.225 61.5664 408.811 60.1191 404.506 60.1191ZM460.337 99.0283L475.255 52.7715H485.775L464.178 113H456.329L434.509 52.7715H445.029L460.337 99.0283ZM506.872 113H496.574V52.7715H506.872V113ZM495.739 36.7959C495.739 35.126 496.24 33.7158 497.242 32.5654C498.281 31.415 499.803 30.8398 501.807 30.8398C503.811 30.8398 505.332 31.415 506.371 32.5654C507.41 33.7158 507.93 35.126 507.93 36.7959C507.93 38.4658 507.41 39.8574 506.371 40.9707C505.332 42.084 503.811 42.6406 501.807 42.6406C499.803 42.6406 498.281 42.084 497.242 40.9707C496.24 39.8574 495.739 38.4658 495.739 36.7959ZM520.899 82.3848C520.899 73.1445 523.089 65.7227 527.468 60.1191C531.847 54.4785 537.58 51.6582 544.668 51.6582C551.719 51.6582 557.304 54.0703 561.423 58.8945V27.5H571.721V113H562.258L561.757 106.543C557.638 111.59 551.904 114.113 544.557 114.113C537.58 114.113 531.884 111.256 527.468 105.541C523.089 99.8262 520.899 92.3672 520.899 83.1641V82.3848ZM531.197 83.5537C531.197 90.3818 532.607 95.7256 535.428 99.585C538.248 103.444 542.145 105.374 547.117 105.374C553.648 105.374 558.417 102.442 561.423 96.5791V68.9141C558.343 63.2363 553.611 60.3975 547.229 60.3975C542.182 60.3975 538.248 62.3457 535.428 66.2422C532.607 70.1387 531.197 75.9092 531.197 83.5537ZM612.745 114.113C604.581 114.113 597.938 111.441 592.817 106.098C587.696 100.717 585.136 93.5361 585.136 84.5557V82.6631C585.136 76.6885 586.268 71.3633 588.531 66.6875C590.832 61.9746 594.023 58.3008 598.105 55.666C602.225 52.9941 606.678 51.6582 611.465 51.6582C619.295 51.6582 625.381 54.2373 629.723 59.3955C634.064 64.5537 636.235 71.9385 636.235 81.5498V85.8359H595.434C595.582 91.7734 597.308 96.5791 600.61 100.253C603.95 103.89 608.181 105.708 613.302 105.708C616.938 105.708 620.019 104.966 622.542 103.481C625.065 101.997 627.273 100.03 629.166 97.5811L635.456 102.479C630.409 110.235 622.839 114.113 612.745 114.113ZM611.465 60.1191C607.309 60.1191 603.82 61.6406 601 64.6836C598.18 67.6895 596.436 71.9199 595.768 77.375H625.938V76.5957C625.641 71.3633 624.23 67.3184 621.707 64.4609C619.184 61.5664 615.77 60.1191 611.465 60.1191ZM657.944 52.7715L658.278 60.3418C662.88 54.5527 668.892 51.6582 676.313 51.6582C689.042 51.6582 695.462 58.8389 695.573 73.2002V113H685.275V73.1445C685.238 68.8027 684.236 65.5928 682.27 63.5146C680.34 61.4365 677.315 60.3975 673.196 60.3975C669.856 60.3975 666.925 61.2881 664.401 63.0693C661.878 64.8506 659.911 67.1885 658.501 70.083V113H648.203V52.7715H657.944ZM735.262 105.708C738.936 105.708 742.146 104.595 744.892 102.368C747.638 100.142 749.159 97.3584 749.456 94.0186H759.197C759.012 97.4697 757.824 100.754 755.635 103.871C753.445 106.988 750.514 109.475 746.84 111.33C743.203 113.186 739.344 114.113 735.262 114.113C727.061 114.113 720.529 111.386 715.668 105.931C710.844 100.438 708.432 92.9424 708.432 83.4424V81.7168C708.432 75.8535 709.508 70.6396 711.66 66.0752C713.812 61.5107 716.893 57.9668 720.9 55.4434C724.945 52.9199 729.714 51.6582 735.206 51.6582C741.96 51.6582 747.563 53.6807 752.017 57.7256C756.507 61.7705 758.9 67.0215 759.197 73.4785H749.456C749.159 69.582 747.675 66.3906 745.003 63.9043C742.368 61.3809 739.103 60.1191 735.206 60.1191C729.974 60.1191 725.91 62.0117 723.016 65.7969C720.158 69.5449 718.729 74.9814 718.729 82.1064V84.0547C718.729 90.9941 720.158 96.3379 723.016 100.086C725.873 103.834 729.955 105.708 735.262 105.708ZM795.769 114.113C787.604 114.113 780.962 111.441 775.841 106.098C770.72 100.717 768.159 93.5361 768.159 84.5557V82.6631C768.159 76.6885 769.291 71.3633 771.555 66.6875C773.855 61.9746 777.047 58.3008 781.129 55.666C785.248 52.9941 789.701 51.6582 794.488 51.6582C802.318 51.6582 808.404 54.2373 812.746 59.3955C817.088 64.5537 819.259 71.9385 819.259 81.5498V85.8359H778.457C778.605 91.7734 780.331 96.5791 783.634 100.253C786.974 103.89 791.204 105.708 796.325 105.708C799.962 105.708 803.042 104.966 805.565 103.481C808.089 101.997 810.297 100.03 812.189 97.5811L818.479 102.479C813.433 110.235 805.862 114.113 795.769 114.113ZM794.488 60.1191C790.332 60.1191 786.844 61.6406 784.023 64.6836C781.203 67.6895 779.459 71.9199 778.791 77.375H808.961V76.5957C808.664 71.3633 807.254 67.3184 804.73 64.4609C802.207 61.5664 798.793 60.1191 794.488 60.1191Z" fill="#181818"/>
<path d="M945.786 114.113C937.622 114.113 930.979 111.441 925.858 106.098C920.737 100.717 918.177 93.5361 918.177 84.5557V82.6631C918.177 76.6885 919.309 71.3633 921.572 66.6875C923.873 61.9746 927.064 58.3008 931.146 55.666C935.266 52.9941 939.719 51.6582 944.506 51.6582C952.336 51.6582 958.422 54.2373 962.764 59.3955C967.105 64.5537 969.276 71.9385 969.276 81.5498V85.8359H928.475C928.623 91.7734 930.349 96.5791 933.651 100.253C936.991 103.89 941.222 105.708 946.343 105.708C949.979 105.708 953.06 104.966 955.583 103.481C958.106 101.997 960.314 100.03 962.207 97.5811L968.497 102.479C963.45 110.235 955.88 114.113 945.786 114.113ZM944.506 60.1191C940.35 60.1191 936.861 61.6406 934.041 64.6836C931.221 67.6895 929.477 71.9199 928.809 77.375H958.979V76.5957C958.682 71.3633 957.271 67.3184 954.748 64.4609C952.225 61.5664 948.811 60.1191 944.506 60.1191ZM990.93 52.7715L991.208 59.4512C995.624 54.2559 1001.58 51.6582 1009.08 51.6582C1017.5 51.6582 1023.23 54.8867 1026.28 61.3438C1028.28 58.4492 1030.88 56.1113 1034.07 54.3301C1037.3 52.5488 1041.1 51.6582 1045.48 51.6582C1058.69 51.6582 1065.41 58.6533 1065.63 72.6436V113H1055.33V73.2559C1055.33 68.9512 1054.35 65.7412 1052.38 63.626C1050.42 61.4736 1047.11 60.3975 1042.47 60.3975C1038.65 60.3975 1035.48 61.5479 1032.96 63.8486C1030.43 66.1123 1028.97 69.1738 1028.56 73.0332V113H1018.21V73.5342C1018.21 64.7764 1013.92 60.3975 1005.35 60.3975C998.593 60.3975 993.973 63.2734 991.486 69.0254V113H981.188V52.7715H990.93ZM1132.09 83.5537C1132.09 92.7197 1130 100.104 1125.8 105.708C1121.61 111.312 1115.93 114.113 1108.77 114.113C1101.46 114.113 1095.71 111.794 1091.51 107.155V136.156H1081.22V52.7715H1090.62L1091.12 59.4512C1095.32 54.2559 1101.14 51.6582 1108.6 51.6582C1115.84 51.6582 1121.55 54.3857 1125.75 59.8408C1129.98 65.2959 1132.09 72.8848 1132.09 82.6074V83.5537ZM1121.8 82.3848C1121.8 75.5938 1120.35 70.2314 1117.45 66.2979C1114.56 62.3643 1110.59 60.3975 1105.54 60.3975C1099.31 60.3975 1094.63 63.1621 1091.51 68.6914V97.4697C1094.59 102.962 1099.31 105.708 1105.65 105.708C1110.59 105.708 1114.5 103.76 1117.4 99.8633C1120.33 95.9297 1121.8 90.1035 1121.8 82.3848ZM1142.5 82.3291C1142.5 76.4287 1143.65 71.1221 1145.95 66.4092C1148.29 61.6963 1151.52 58.0596 1155.64 55.499C1159.8 52.9385 1164.53 51.6582 1169.83 51.6582C1178.04 51.6582 1184.66 54.4971 1189.71 60.1748C1194.79 65.8525 1197.33 73.4043 1197.33 82.8301V83.5537C1197.33 89.417 1196.2 94.6865 1193.94 99.3623C1191.71 104.001 1188.5 107.619 1184.31 110.217C1180.15 112.814 1175.36 114.113 1169.95 114.113C1161.78 114.113 1155.16 111.274 1150.07 105.597C1145.03 99.9189 1142.5 92.4043 1142.5 83.0527V82.3291ZM1152.86 83.5537C1152.86 90.2334 1154.4 95.5957 1157.48 99.6406C1160.59 103.686 1164.75 105.708 1169.95 105.708C1175.18 105.708 1179.33 103.667 1182.41 99.585C1185.49 95.4658 1187.03 89.7139 1187.03 82.3291C1187.03 75.7236 1185.46 70.3799 1182.3 66.2979C1179.19 62.1787 1175.03 60.1191 1169.83 60.1191C1164.75 60.1191 1160.65 62.1416 1157.53 66.1865C1154.42 70.2314 1152.86 76.0205 1152.86 83.5537ZM1263.57 98.8057L1275.15 52.7715H1285.45L1267.91 113H1259.56L1244.92 67.3555L1230.67 113H1222.33L1204.85 52.7715H1215.09L1226.95 97.8594L1240.97 52.7715H1249.27L1263.57 98.8057ZM1320.96 114.113C1312.8 114.113 1306.16 111.441 1301.03 106.098C1295.91 100.717 1293.35 93.5361 1293.35 84.5557V82.6631C1293.35 76.6885 1294.48 71.3633 1296.75 66.6875C1299.05 61.9746 1302.24 58.3008 1306.32 55.666C1310.44 52.9941 1314.89 51.6582 1319.68 51.6582C1327.51 51.6582 1333.6 54.2373 1337.94 59.3955C1342.28 64.5537 1344.45 71.9385 1344.45 81.5498V85.8359H1303.65C1303.8 91.7734 1305.52 96.5791 1308.83 100.253C1312.17 103.89 1316.4 105.708 1321.52 105.708C1325.16 105.708 1328.24 104.966 1330.76 103.481C1333.28 101.997 1335.49 100.03 1337.38 97.5811L1343.67 102.479C1338.63 110.235 1331.06 114.113 1320.96 114.113ZM1319.68 60.1191C1315.53 60.1191 1312.04 61.6406 1309.22 64.6836C1306.4 67.6895 1304.65 71.9199 1303.98 77.375H1334.15V76.5957C1333.86 71.3633 1332.45 67.3184 1329.92 64.4609C1327.4 61.5664 1323.99 60.1191 1319.68 60.1191ZM1385.53 62.0117C1383.97 61.752 1382.29 61.6221 1380.47 61.6221C1373.71 61.6221 1369.13 64.498 1366.72 70.25V113H1356.42V52.7715H1366.44L1366.61 59.7295C1369.98 54.3486 1374.77 51.6582 1380.97 51.6582C1382.97 51.6582 1384.49 51.918 1385.53 52.4375V62.0117ZM1404.74 52.7715L1405.01 59.4512C1409.43 54.2559 1415.39 51.6582 1422.88 51.6582C1431.31 51.6582 1437.04 54.8867 1440.08 61.3438C1442.09 58.4492 1444.68 56.1113 1447.88 54.3301C1451.1 52.5488 1454.91 51.6582 1459.29 51.6582C1472.5 51.6582 1479.21 58.6533 1479.44 72.6436V113H1469.14V73.2559C1469.14 68.9512 1468.16 65.7412 1466.19 63.626C1464.22 61.4736 1460.92 60.3975 1456.28 60.3975C1452.46 60.3975 1449.29 61.5479 1446.76 63.8486C1444.24 66.1123 1442.77 69.1738 1442.37 73.0332V113H1432.01V73.5342C1432.01 64.7764 1427.73 60.3975 1419.15 60.3975C1412.4 60.3975 1407.78 63.2734 1405.29 69.0254V113H1395V52.7715H1404.74ZM1520.02 114.113C1511.85 114.113 1505.21 111.441 1500.09 106.098C1494.97 100.717 1492.41 93.5361 1492.41 84.5557V82.6631C1492.41 76.6885 1493.54 71.3633 1495.8 66.6875C1498.1 61.9746 1501.29 58.3008 1505.38 55.666C1509.5 52.9941 1513.95 51.6582 1518.74 51.6582C1526.57 51.6582 1532.65 54.2373 1536.99 59.3955C1541.34 64.5537 1543.51 71.9385 1543.51 81.5498V85.8359H1502.71C1502.85 91.7734 1504.58 96.5791 1507.88 100.253C1511.22 103.89 1515.45 105.708 1520.57 105.708C1524.21 105.708 1527.29 104.966 1529.81 103.481C1532.34 101.997 1534.54 100.03 1536.44 97.5811L1542.73 102.479C1537.68 110.235 1530.11 114.113 1520.02 114.113ZM1518.74 60.1191C1514.58 60.1191 1511.09 61.6406 1508.27 64.6836C1505.45 67.6895 1503.71 71.9199 1503.04 77.375H1533.21V76.5957C1532.91 71.3633 1531.5 67.3184 1528.98 64.4609C1526.46 61.5664 1523.04 60.1191 1518.74 60.1191ZM1565.22 52.7715L1565.55 60.3418C1570.15 54.5527 1576.16 51.6582 1583.58 51.6582C1596.31 51.6582 1602.73 58.8389 1602.84 73.2002V113H1592.55V73.1445C1592.51 68.8027 1591.51 65.5928 1589.54 63.5146C1587.61 61.4365 1584.59 60.3975 1580.47 60.3975C1577.13 60.3975 1574.2 61.2881 1571.67 63.0693C1569.15 64.8506 1567.18 67.1885 1565.77 70.083V113H1555.47V52.7715H1565.22ZM1632.35 38.1875V52.7715H1643.59V60.7314H1632.35V98.082C1632.35 100.494 1632.85 102.312 1633.85 103.537C1634.85 104.725 1636.56 105.318 1638.97 105.318C1640.16 105.318 1641.79 105.096 1643.87 104.65V113C1641.16 113.742 1638.53 114.113 1635.96 114.113C1631.36 114.113 1627.89 112.722 1625.56 109.938C1623.22 107.155 1622.05 103.203 1622.05 98.082V60.7314H1611.08V52.7715H1622.05V38.1875H1632.35Z" fill="#181818"/>
<path d="M109.977 113C109.383 111.812 108.9 109.697 108.529 106.654C103.742 111.627 98.0273 114.113 91.3848 114.113C85.4473 114.113 80.5674 112.443 76.7451 109.104C72.96 105.727 71.0674 101.459 71.0674 96.3008C71.0674 90.0293 73.4424 85.168 78.1924 81.7168C82.9795 78.2285 89.6963 76.4844 98.3428 76.4844H108.362V71.7529C108.362 68.1533 107.286 65.2959 105.134 63.1807C102.981 61.0283 99.8086 59.9521 95.6152 59.9521C91.9414 59.9521 88.8613 60.8799 86.375 62.7354C83.8887 64.5908 82.6455 66.8359 82.6455 69.4707H72.292C72.292 66.4648 73.3496 63.5703 75.4648 60.7871C77.6172 57.9668 80.5117 55.7402 84.1484 54.1074C87.8223 52.4746 91.8486 51.6582 96.2275 51.6582C103.167 51.6582 108.604 53.4023 112.537 56.8906C116.471 60.3418 118.512 65.1104 118.66 71.1963V98.917C118.66 104.446 119.365 108.844 120.775 112.109V113H109.977ZM92.8877 105.151C96.1162 105.151 99.1777 104.316 102.072 102.646C104.967 100.977 107.063 98.8057 108.362 96.1338V83.7764H100.291C87.6738 83.7764 81.3652 87.4688 81.3652 94.8535C81.3652 98.082 82.4414 100.605 84.5938 102.424C86.7461 104.242 89.5107 105.151 92.8877 105.151ZM132.354 82.3848C132.354 72.9961 134.524 65.5371 138.866 60.0078C143.208 54.4414 148.96 51.6582 156.122 51.6582C163.47 51.6582 169.203 54.2559 173.322 59.4512L173.823 52.7715H183.23V111.553C183.23 119.346 180.911 125.487 176.272 129.978C171.671 134.468 165.474 136.713 157.681 136.713C153.339 136.713 149.09 135.785 144.934 133.93C140.777 132.074 137.604 129.532 135.415 126.304L140.759 120.125C145.175 125.58 150.574 128.308 156.957 128.308C161.967 128.308 165.863 126.897 168.646 124.077C171.467 121.257 172.877 117.286 172.877 112.165V106.988C168.758 111.738 163.136 114.113 156.011 114.113C148.96 114.113 143.245 111.274 138.866 105.597C134.524 99.9189 132.354 92.1816 132.354 82.3848ZM142.707 83.5537C142.707 90.3447 144.099 95.6885 146.882 99.585C149.665 103.444 153.562 105.374 158.571 105.374C165.065 105.374 169.834 102.424 172.877 96.5234V69.0254C169.723 63.2734 164.991 60.3975 158.683 60.3975C153.673 60.3975 149.758 62.3457 146.938 66.2422C144.117 70.1387 142.707 75.9092 142.707 83.5537ZM210.005 113H199.707V52.7715H210.005V113ZM198.872 36.7959C198.872 35.126 199.373 33.7158 200.375 32.5654C201.414 31.415 202.936 30.8398 204.939 30.8398C206.943 30.8398 208.465 31.415 209.504 32.5654C210.543 33.7158 211.062 35.126 211.062 36.7959C211.062 38.4658 210.543 39.8574 209.504 40.9707C208.465 42.084 206.943 42.6406 204.939 42.6406C202.936 42.6406 201.414 42.084 200.375 40.9707C199.373 39.8574 198.872 38.4658 198.872 36.7959ZM237.726 113H227.428V27.5H237.726V113ZM279.251 114.113C271.087 114.113 264.444 111.441 259.323 106.098C254.202 100.717 251.642 93.5361 251.642 84.5557V82.6631C251.642 76.6885 252.773 71.3633 255.037 66.6875C257.338 61.9746 260.529 58.3008 264.611 55.666C268.73 52.9941 273.184 51.6582 277.971 51.6582C285.801 51.6582 291.887 54.2373 296.229 59.3955C300.57 64.5537 302.741 71.9385 302.741 81.5498V85.8359H261.939C262.088 91.7734 263.813 96.5791 267.116 100.253C270.456 103.89 274.687 105.708 279.808 105.708C283.444 105.708 286.524 104.966 289.048 103.481C291.571 101.997 293.779 100.03 295.672 97.5811L301.962 102.479C296.915 110.235 289.345 114.113 279.251 114.113ZM277.971 60.1191C273.814 60.1191 270.326 61.6406 267.506 64.6836C264.686 67.6895 262.941 71.9199 262.273 77.375H292.443V76.5957C292.146 71.3633 290.736 67.3184 288.213 64.4609C285.689 61.5664 282.275 60.1191 277.971 60.1191Z" fill="#E8244F"/>
</g>
<defs>
<clipPath id="clip0_1_1544">
<rect width="1440" height="148" fill="white" transform="translate(0 0.625)"/>
</clipPath>
</defs>
</svg>
