<svg width="1440" height="653" viewBox="0 0 1440 653" fill="none" xmlns="http://www.w3.org/2000/svg">
<g clip-path="url(#clip0_1_1748)">
<path d="M-158.235 48.1875V62.7715H-146.991V70.7314H-158.235V108.082C-158.235 110.494 -157.734 112.312 -156.732 113.537C-155.73 114.725 -154.023 115.318 -151.611 115.318C-150.424 115.318 -148.791 115.096 -146.713 114.65V123C-149.422 123.742 -152.057 124.113 -154.617 124.113C-159.219 124.113 -162.688 122.722 -165.026 119.938C-167.364 117.155 -168.533 113.203 -168.533 108.082V70.7314H-179.499V62.7715H-168.533V48.1875H-158.235ZM-124.614 70.0635C-120.05 64.46 -114.112 61.6582 -106.802 61.6582C-94.0732 61.6582 -87.6533 68.8389 -87.542 83.2002V123H-97.8398V83.1445C-97.877 78.8027 -98.8789 75.5928 -100.846 73.5146C-102.775 71.4365 -105.8 70.3975 -109.919 70.3975C-113.259 70.3975 -116.19 71.2881 -118.714 73.0693C-121.237 74.8506 -123.204 77.1885 -124.614 80.083V123H-134.912V37.5H-124.614V70.0635ZM-60.9346 123H-71.2324V62.7715H-60.9346V123ZM-72.0674 46.7959C-72.0674 45.126 -71.5664 43.7158 -70.5645 42.5654C-69.5254 41.415 -68.0039 40.8398 -66 40.8398C-63.9961 40.8398 -62.4746 41.415 -61.4355 42.5654C-60.3965 43.7158 -59.877 45.126 -59.877 46.7959C-59.877 48.4658 -60.3965 49.8574 -61.4355 50.9707C-62.4746 52.084 -63.9961 52.6406 -66 52.6406C-68.0039 52.6406 -69.5254 52.084 -70.5645 50.9707C-71.5664 49.8574 -72.0674 48.4658 -72.0674 46.7959ZM-34.6611 62.7715L-34.3271 70.3418C-29.7256 64.5527 -23.7139 61.6582 -16.292 61.6582C-3.56348 61.6582 2.85645 68.8389 2.96777 83.2002V123H-7.33008V83.1445C-7.36719 78.8027 -8.36914 75.5928 -10.3359 73.5146C-12.2656 71.4365 -15.29 70.3975 -19.4092 70.3975C-22.749 70.3975 -25.6807 71.2881 -28.2041 73.0693C-30.7275 74.8506 -32.6943 77.1885 -34.1045 80.083V123H-44.4023V62.7715H-34.6611ZM35.3086 95.1123L28.8516 101.848V123H18.5537V37.5H28.8516V89.2119L34.3623 82.5879L53.1211 62.7715H65.6455L42.2109 87.9316L68.373 123H56.2939L35.3086 95.1123ZM155.543 93.5537C155.543 102.757 153.428 110.16 149.197 115.764C144.967 121.33 139.289 124.113 132.164 124.113C124.557 124.113 118.675 121.423 114.519 116.042L114.018 123H104.555V37.5H114.853V69.3955C119.009 64.2373 124.742 61.6582 132.053 61.6582C139.363 61.6582 145.097 64.4229 149.253 69.9521C153.446 75.4814 155.543 83.0518 155.543 92.6631V93.5537ZM145.245 92.3848C145.245 85.3711 143.891 79.9531 141.182 76.1309C138.473 72.3086 134.576 70.3975 129.492 70.3975C122.701 70.3975 117.821 73.5518 114.853 79.8604V105.911C118.007 112.22 122.924 115.374 129.604 115.374C134.539 115.374 138.38 113.463 141.126 109.641C143.872 105.818 145.245 100.066 145.245 92.3848ZM179.757 123H169.459V62.7715H179.757V123ZM168.624 46.7959C168.624 45.126 169.125 43.7158 170.127 42.5654C171.166 41.415 172.688 40.8398 174.691 40.8398C176.695 40.8398 178.217 41.415 179.256 42.5654C180.295 43.7158 180.814 45.126 180.814 46.7959C180.814 48.4658 180.295 49.8574 179.256 50.9707C178.217 52.084 176.695 52.6406 174.691 52.6406C172.688 52.6406 171.166 52.084 170.127 50.9707C169.125 49.8574 168.624 48.4658 168.624 46.7959ZM193.84 92.3848C193.84 82.9961 196.011 75.5371 200.353 70.0078C204.694 64.4414 210.446 61.6582 217.608 61.6582C224.956 61.6582 230.689 64.2559 234.809 69.4512L235.31 62.7715H244.717V121.553C244.717 129.346 242.397 135.487 237.759 139.978C233.157 144.468 226.96 146.713 219.167 146.713C214.825 146.713 210.576 145.785 206.42 143.93C202.264 142.074 199.091 139.532 196.901 136.304L202.245 130.125C206.661 135.58 212.061 138.308 218.443 138.308C223.453 138.308 227.35 136.897 230.133 134.077C232.953 131.257 234.363 127.286 234.363 122.165V116.988C230.244 121.738 224.622 124.113 217.497 124.113C210.446 124.113 204.731 121.274 200.353 115.597C196.011 109.919 193.84 102.182 193.84 92.3848ZM204.193 93.5537C204.193 100.345 205.585 105.688 208.368 109.585C211.151 113.444 215.048 115.374 220.058 115.374C226.552 115.374 231.32 112.424 234.363 106.523V79.0254C231.209 73.2734 226.478 70.3975 220.169 70.3975C215.159 70.3975 211.244 72.3457 208.424 76.2422C205.604 80.1387 204.193 85.9092 204.193 93.5537ZM260.525 117.601C260.525 115.819 261.045 114.335 262.084 113.147C263.16 111.96 264.756 111.366 266.871 111.366C268.986 111.366 270.582 111.96 271.658 113.147C272.771 114.335 273.328 115.819 273.328 117.601C273.328 119.308 272.771 120.736 271.658 121.887C270.582 123.037 268.986 123.612 266.871 123.612C264.756 123.612 263.16 123.037 262.084 121.887C261.045 120.736 260.525 119.308 260.525 117.601Z" fill="#888888"/>
<path d="M390.765 48.1875V62.7715H402.009V70.7314H390.765V108.082C390.765 110.494 391.266 112.312 392.268 113.537C393.27 114.725 394.977 115.318 397.389 115.318C398.576 115.318 400.209 115.096 402.287 114.65V123C399.578 123.742 396.943 124.113 394.383 124.113C389.781 124.113 386.312 122.722 383.974 119.938C381.636 117.155 380.467 113.203 380.467 108.082V70.7314H369.501V62.7715H380.467V48.1875H390.765ZM424.386 70.0635C428.95 64.46 434.888 61.6582 442.198 61.6582C454.927 61.6582 461.347 68.8389 461.458 83.2002V123H451.16V83.1445C451.123 78.8027 450.121 75.5928 448.154 73.5146C446.225 71.4365 443.2 70.3975 439.081 70.3975C435.741 70.3975 432.81 71.2881 430.286 73.0693C427.763 74.8506 425.796 77.1885 424.386 80.083V123H414.088V37.5H424.386V70.0635ZM488.065 123H477.768V62.7715H488.065V123ZM476.933 46.7959C476.933 45.126 477.434 43.7158 478.436 42.5654C479.475 41.415 480.996 40.8398 483 40.8398C485.004 40.8398 486.525 41.415 487.564 42.5654C488.604 43.7158 489.123 45.126 489.123 46.7959C489.123 48.4658 488.604 49.8574 487.564 50.9707C486.525 52.084 485.004 52.6406 483 52.6406C480.996 52.6406 479.475 52.084 478.436 50.9707C477.434 49.8574 476.933 48.4658 476.933 46.7959ZM514.339 62.7715L514.673 70.3418C519.274 64.5527 525.286 61.6582 532.708 61.6582C545.437 61.6582 551.856 68.8389 551.968 83.2002V123H541.67V83.1445C541.633 78.8027 540.631 75.5928 538.664 73.5146C536.734 71.4365 533.71 70.3975 529.591 70.3975C526.251 70.3975 523.319 71.2881 520.796 73.0693C518.272 74.8506 516.306 77.1885 514.896 80.083V123H504.598V62.7715H514.339ZM584.309 95.1123L577.852 101.848V123H567.554V37.5H577.852V89.2119L583.362 82.5879L602.121 62.7715H614.646L591.211 87.9316L617.373 123H605.294L584.309 95.1123ZM704.543 93.5537C704.543 102.757 702.428 110.16 698.197 115.764C693.967 121.33 688.289 124.113 681.164 124.113C673.557 124.113 667.675 121.423 663.519 116.042L663.018 123H653.555V37.5H663.853V69.3955C668.009 64.2373 673.742 61.6582 681.053 61.6582C688.363 61.6582 694.097 64.4229 698.253 69.9521C702.446 75.4814 704.543 83.0518 704.543 92.6631V93.5537ZM694.245 92.3848C694.245 85.3711 692.891 79.9531 690.182 76.1309C687.473 72.3086 683.576 70.3975 678.492 70.3975C671.701 70.3975 666.821 73.5518 663.853 79.8604V105.911C667.007 112.22 671.924 115.374 678.604 115.374C683.539 115.374 687.38 113.463 690.126 109.641C692.872 105.818 694.245 100.066 694.245 92.3848ZM728.757 123H718.459V62.7715H728.757V123ZM717.624 46.7959C717.624 45.126 718.125 43.7158 719.127 42.5654C720.166 41.415 721.688 40.8398 723.691 40.8398C725.695 40.8398 727.217 41.415 728.256 42.5654C729.295 43.7158 729.814 45.126 729.814 46.7959C729.814 48.4658 729.295 49.8574 728.256 50.9707C727.217 52.084 725.695 52.6406 723.691 52.6406C721.688 52.6406 720.166 52.084 719.127 50.9707C718.125 49.8574 717.624 48.4658 717.624 46.7959ZM742.84 92.3848C742.84 82.9961 745.011 75.5371 749.353 70.0078C753.694 64.4414 759.446 61.6582 766.608 61.6582C773.956 61.6582 779.689 64.2559 783.809 69.4512L784.31 62.7715H793.717V121.553C793.717 129.346 791.397 135.487 786.759 139.978C782.157 144.468 775.96 146.713 768.167 146.713C763.825 146.713 759.576 145.785 755.42 143.93C751.264 142.074 748.091 139.532 745.901 136.304L751.245 130.125C755.661 135.58 761.061 138.308 767.443 138.308C772.453 138.308 776.35 136.897 779.133 134.077C781.953 131.257 783.363 127.286 783.363 122.165V116.988C779.244 121.738 773.622 124.113 766.497 124.113C759.446 124.113 753.731 121.274 749.353 115.597C745.011 109.919 742.84 102.182 742.84 92.3848ZM753.193 93.5537C753.193 100.345 754.585 105.688 757.368 109.585C760.151 113.444 764.048 115.374 769.058 115.374C775.552 115.374 780.32 112.424 783.363 106.523V79.0254C780.209 73.2734 775.478 70.3975 769.169 70.3975C764.159 70.3975 760.244 72.3457 757.424 76.2422C754.604 80.1387 753.193 85.9092 753.193 93.5537ZM809.525 117.601C809.525 115.819 810.045 114.335 811.084 113.147C812.16 111.96 813.756 111.366 815.871 111.366C817.986 111.366 819.582 111.96 820.658 113.147C821.771 114.335 822.328 115.819 822.328 117.601C822.328 119.308 821.771 120.736 820.658 121.887C819.582 123.037 817.986 123.612 815.871 123.612C813.756 123.612 812.16 123.037 811.084 121.887C810.045 120.736 809.525 119.308 809.525 117.601Z" fill="black"/>
<path d="M939.765 48.1875V62.7715H951.009V70.7314H939.765V108.082C939.765 110.494 940.266 112.312 941.268 113.537C942.27 114.725 943.977 115.318 946.389 115.318C947.576 115.318 949.209 115.096 951.287 114.65V123C948.578 123.742 945.943 124.113 943.383 124.113C938.781 124.113 935.312 122.722 932.974 119.938C930.636 117.155 929.467 113.203 929.467 108.082V70.7314H918.501V62.7715H929.467V48.1875H939.765ZM973.386 70.0635C977.95 64.46 983.888 61.6582 991.198 61.6582C1003.93 61.6582 1010.35 68.8389 1010.46 83.2002V123H1000.16V83.1445C1000.12 78.8027 999.121 75.5928 997.154 73.5146C995.225 71.4365 992.2 70.3975 988.081 70.3975C984.741 70.3975 981.81 71.2881 979.286 73.0693C976.763 74.8506 974.796 77.1885 973.386 80.083V123H963.088V37.5H973.386V70.0635ZM1037.07 123H1026.77V62.7715H1037.07V123ZM1025.93 46.7959C1025.93 45.126 1026.43 43.7158 1027.44 42.5654C1028.47 41.415 1030 40.8398 1032 40.8398C1034 40.8398 1035.53 41.415 1036.56 42.5654C1037.6 43.7158 1038.12 45.126 1038.12 46.7959C1038.12 48.4658 1037.6 49.8574 1036.56 50.9707C1035.53 52.084 1034 52.6406 1032 52.6406C1030 52.6406 1028.47 52.084 1027.44 50.9707C1026.43 49.8574 1025.93 48.4658 1025.93 46.7959ZM1063.34 62.7715L1063.67 70.3418C1068.27 64.5527 1074.29 61.6582 1081.71 61.6582C1094.44 61.6582 1100.86 68.8389 1100.97 83.2002V123H1090.67V83.1445C1090.63 78.8027 1089.63 75.5928 1087.66 73.5146C1085.73 71.4365 1082.71 70.3975 1078.59 70.3975C1075.25 70.3975 1072.32 71.2881 1069.8 73.0693C1067.27 74.8506 1065.31 77.1885 1063.9 80.083V123H1053.6V62.7715H1063.34ZM1133.31 95.1123L1126.85 101.848V123H1116.55V37.5H1126.85V89.2119L1132.36 82.5879L1151.12 62.7715H1163.65L1140.21 87.9316L1166.37 123H1154.29L1133.31 95.1123ZM1253.54 93.5537C1253.54 102.757 1251.43 110.16 1247.2 115.764C1242.97 121.33 1237.29 124.113 1230.16 124.113C1222.56 124.113 1216.67 121.423 1212.52 116.042L1212.02 123H1202.55V37.5H1212.85V69.3955C1217.01 64.2373 1222.74 61.6582 1230.05 61.6582C1237.36 61.6582 1243.1 64.4229 1247.25 69.9521C1251.45 75.4814 1253.54 83.0518 1253.54 92.6631V93.5537ZM1243.25 92.3848C1243.25 85.3711 1241.89 79.9531 1239.18 76.1309C1236.47 72.3086 1232.58 70.3975 1227.49 70.3975C1220.7 70.3975 1215.82 73.5518 1212.85 79.8604V105.911C1216.01 112.22 1220.92 115.374 1227.6 115.374C1232.54 115.374 1236.38 113.463 1239.13 109.641C1241.87 105.818 1243.25 100.066 1243.25 92.3848ZM1277.76 123H1267.46V62.7715H1277.76V123ZM1266.62 46.7959C1266.62 45.126 1267.12 43.7158 1268.13 42.5654C1269.17 41.415 1270.69 40.8398 1272.69 40.8398C1274.7 40.8398 1276.22 41.415 1277.26 42.5654C1278.29 43.7158 1278.81 45.126 1278.81 46.7959C1278.81 48.4658 1278.29 49.8574 1277.26 50.9707C1276.22 52.084 1274.7 52.6406 1272.69 52.6406C1270.69 52.6406 1269.17 52.084 1268.13 50.9707C1267.12 49.8574 1266.62 48.4658 1266.62 46.7959ZM1291.84 92.3848C1291.84 82.9961 1294.01 75.5371 1298.35 70.0078C1302.69 64.4414 1308.45 61.6582 1315.61 61.6582C1322.96 61.6582 1328.69 64.2559 1332.81 69.4512L1333.31 62.7715H1342.72V121.553C1342.72 129.346 1340.4 135.487 1335.76 139.978C1331.16 144.468 1324.96 146.713 1317.17 146.713C1312.83 146.713 1308.58 145.785 1304.42 143.93C1300.26 142.074 1297.09 139.532 1294.9 136.304L1300.25 130.125C1304.66 135.58 1310.06 138.308 1316.44 138.308C1321.45 138.308 1325.35 136.897 1328.13 134.077C1330.95 131.257 1332.36 127.286 1332.36 122.165V116.988C1328.24 121.738 1322.62 124.113 1315.5 124.113C1308.45 124.113 1302.73 121.274 1298.35 115.597C1294.01 109.919 1291.84 102.182 1291.84 92.3848ZM1302.19 93.5537C1302.19 100.345 1303.58 105.688 1306.37 109.585C1309.15 113.444 1313.05 115.374 1318.06 115.374C1324.55 115.374 1329.32 112.424 1332.36 106.523V79.0254C1329.21 73.2734 1324.48 70.3975 1318.17 70.3975C1313.16 70.3975 1309.24 72.3457 1306.42 76.2422C1303.6 80.1387 1302.19 85.9092 1302.19 93.5537ZM1358.53 117.601C1358.53 115.819 1359.04 114.335 1360.08 113.147C1361.16 111.96 1362.76 111.366 1364.87 111.366C1366.99 111.366 1368.58 111.96 1369.66 113.147C1370.77 114.335 1371.33 115.819 1371.33 117.601C1371.33 119.308 1370.77 120.736 1369.66 121.887C1368.58 123.037 1366.99 123.612 1364.87 123.612C1362.76 123.612 1361.16 123.037 1360.08 121.887C1359.04 120.736 1358.53 119.308 1358.53 117.601Z" fill="#888888"/>
</g>
<g clip-path="url(#clip1_1_1748)">
<path d="M-314.139 297.024C-314.139 294.241 -315.196 292.089 -317.312 290.567C-319.39 289.009 -323.045 287.673 -328.277 286.56C-333.473 285.446 -337.61 284.11 -340.69 282.552C-343.733 280.993 -345.997 279.138 -347.481 276.985C-348.929 274.833 -349.652 272.272 -349.652 269.304C-349.652 264.368 -347.574 260.193 -343.418 256.779C-339.225 253.365 -333.881 251.658 -327.387 251.658C-320.559 251.658 -315.029 253.421 -310.799 256.946C-306.531 260.472 -304.397 264.98 -304.397 270.473H-314.751C-314.751 267.652 -315.957 265.222 -318.369 263.181C-320.744 261.14 -323.75 260.119 -327.387 260.119C-331.135 260.119 -334.066 260.936 -336.182 262.568C-338.297 264.201 -339.354 266.335 -339.354 268.97C-339.354 271.456 -338.371 273.33 -336.404 274.592C-334.438 275.854 -330.894 277.06 -325.772 278.21C-320.614 279.36 -316.439 280.733 -313.248 282.329C-310.057 283.925 -307.7 285.854 -306.179 288.118C-304.62 290.345 -303.841 293.072 -303.841 296.301C-303.841 301.682 -305.993 306.005 -310.298 309.271C-314.603 312.499 -320.188 314.113 -327.053 314.113C-331.877 314.113 -336.145 313.26 -339.855 311.553C-343.566 309.846 -346.479 307.471 -348.595 304.428C-350.673 301.348 -351.712 298.026 -351.712 294.464H-341.414C-341.229 297.915 -339.855 300.661 -337.295 302.702C-334.697 304.706 -331.283 305.708 -327.053 305.708C-323.156 305.708 -320.039 304.929 -317.701 303.37C-315.326 301.774 -314.139 299.659 -314.139 297.024ZM-276.454 238.188V252.771H-265.21V260.731H-276.454V298.082C-276.454 300.494 -275.953 302.312 -274.951 303.537C-273.949 304.725 -272.242 305.318 -269.83 305.318C-268.643 305.318 -267.01 305.096 -264.932 304.65V313C-267.641 313.742 -270.275 314.113 -272.836 314.113C-277.438 314.113 -280.907 312.722 -283.245 309.938C-285.583 307.155 -286.752 303.203 -286.752 298.082V260.731H-297.718V252.771H-286.752V238.188H-276.454ZM-215.947 313C-216.541 311.812 -217.023 309.697 -217.395 306.654C-222.182 311.627 -227.896 314.113 -234.539 314.113C-240.477 314.113 -245.356 312.443 -249.179 309.104C-252.964 305.727 -254.856 301.459 -254.856 296.301C-254.856 290.029 -252.481 285.168 -247.731 281.717C-242.944 278.229 -236.228 276.484 -227.581 276.484H-217.562V271.753C-217.562 268.153 -218.638 265.296 -220.79 263.181C-222.942 261.028 -226.115 259.952 -230.309 259.952C-233.982 259.952 -237.062 260.88 -239.549 262.735C-242.035 264.591 -243.278 266.836 -243.278 269.471H-253.632C-253.632 266.465 -252.574 263.57 -250.459 260.787C-248.307 257.967 -245.412 255.74 -241.775 254.107C-238.102 252.475 -234.075 251.658 -229.696 251.658C-222.757 251.658 -217.32 253.402 -213.387 256.891C-209.453 260.342 -207.412 265.11 -207.264 271.196V298.917C-207.264 304.446 -206.559 308.844 -205.148 312.109V313H-215.947ZM-233.036 305.151C-229.808 305.151 -226.746 304.316 -223.852 302.646C-220.957 300.977 -218.86 298.806 -217.562 296.134V283.776H-225.633C-238.25 283.776 -244.559 287.469 -244.559 294.854C-244.559 298.082 -243.482 300.605 -241.33 302.424C-239.178 304.242 -236.413 305.151 -233.036 305.151ZM-162.009 262.012C-163.567 261.752 -165.256 261.622 -167.074 261.622C-173.828 261.622 -178.411 264.498 -180.823 270.25V313H-191.121V252.771H-181.102L-180.935 259.729C-177.558 254.349 -172.771 251.658 -166.573 251.658C-164.569 251.658 -163.048 251.918 -162.009 252.438V262.012ZM-135.735 238.188V252.771H-124.491V260.731H-135.735V298.082C-135.735 300.494 -135.234 302.312 -134.232 303.537C-133.23 304.725 -131.523 305.318 -129.111 305.318C-127.924 305.318 -126.291 305.096 -124.213 304.65V313C-126.922 313.742 -129.557 314.113 -132.117 314.113C-136.719 314.113 -140.188 312.722 -142.526 309.938C-144.864 307.155 -146.033 303.203 -146.033 298.082V260.731H-156.999V252.771H-146.033V238.188H-135.735ZM-49.0664 297.024C-49.0664 294.241 -50.124 292.089 -52.2393 290.567C-54.3174 289.009 -57.9727 287.673 -63.2051 286.56C-68.4004 285.446 -72.5381 284.11 -75.6182 282.552C-78.6611 280.993 -80.9248 279.138 -82.4092 276.985C-83.8564 274.833 -84.5801 272.272 -84.5801 269.304C-84.5801 264.368 -82.502 260.193 -78.3457 256.779C-74.1523 253.365 -68.8086 251.658 -62.3145 251.658C-55.4863 251.658 -49.957 253.421 -45.7266 256.946C-41.459 260.472 -39.3252 264.98 -39.3252 270.473H-49.6787C-49.6787 267.652 -50.8848 265.222 -53.2969 263.181C-55.6719 261.14 -58.6777 260.119 -62.3145 260.119C-66.0625 260.119 -68.9941 260.936 -71.1094 262.568C-73.2246 264.201 -74.2822 266.335 -74.2822 268.97C-74.2822 271.456 -73.2988 273.33 -71.332 274.592C-69.3652 275.854 -65.8213 277.06 -60.7002 278.21C-55.542 279.36 -51.3672 280.733 -48.1758 282.329C-44.9844 283.925 -42.6279 285.854 -41.1064 288.118C-39.5479 290.345 -38.7686 293.072 -38.7686 296.301C-38.7686 301.682 -40.9209 306.005 -45.2256 309.271C-49.5303 312.499 -55.1152 314.113 -61.9805 314.113C-66.8047 314.113 -71.0723 313.26 -74.7832 311.553C-78.4941 309.846 -81.4072 307.471 -83.5225 304.428C-85.6006 301.348 -86.6396 298.026 -86.6396 294.464H-76.3418C-76.1562 297.915 -74.7832 300.661 -72.2227 302.702C-69.625 304.706 -66.2109 305.708 -61.9805 305.708C-58.084 305.708 -54.9668 304.929 -52.6289 303.37C-50.2539 301.774 -49.0664 299.659 -49.0664 297.024ZM-15.668 252.771L-15.3896 259.451C-10.9736 254.256 -5.01758 251.658 2.47852 251.658C10.9023 251.658 16.6357 254.887 19.6787 261.344C21.6826 258.449 24.2803 256.111 27.4717 254.33C30.7002 252.549 34.5039 251.658 38.8828 251.658C52.0938 251.658 58.8105 258.653 59.0332 272.644V313H48.7354V273.256C48.7354 268.951 47.752 265.741 45.7852 263.626C43.8184 261.474 40.5156 260.397 35.877 260.397C32.0547 260.397 28.8818 261.548 26.3584 263.849C23.835 266.112 22.3691 269.174 21.9609 273.033V313H11.6074V273.534C11.6074 264.776 7.32129 260.397 -1.25098 260.397C-8.00488 260.397 -12.625 263.273 -15.1113 269.025V313H-25.4092V252.771H-15.668ZM111.803 313C111.209 311.812 110.727 309.697 110.355 306.654C105.568 311.627 99.8535 314.113 93.2109 314.113C87.2734 314.113 82.3936 312.443 78.5713 309.104C74.7861 305.727 72.8936 301.459 72.8936 296.301C72.8936 290.029 75.2686 285.168 80.0186 281.717C84.8057 278.229 91.5225 276.484 100.169 276.484H110.188V271.753C110.188 268.153 109.112 265.296 106.96 263.181C104.808 261.028 101.635 259.952 97.4414 259.952C93.7676 259.952 90.6875 260.88 88.2012 262.735C85.7148 264.591 84.4717 266.836 84.4717 269.471H74.1182C74.1182 266.465 75.1758 263.57 77.291 260.787C79.4434 257.967 82.3379 255.74 85.9746 254.107C89.6484 252.475 93.6748 251.658 98.0537 251.658C104.993 251.658 110.43 253.402 114.363 256.891C118.297 260.342 120.338 265.11 120.486 271.196V298.917C120.486 304.446 121.191 308.844 122.602 312.109V313H111.803ZM94.7139 305.151C97.9424 305.151 101.004 304.316 103.898 302.646C106.793 300.977 108.89 298.806 110.188 296.134V283.776H102.117C89.5 283.776 83.1914 287.469 83.1914 294.854C83.1914 298.082 84.2676 300.605 86.4199 302.424C88.5723 304.242 91.3369 305.151 94.7139 305.151ZM147.817 313H137.52V227.5H147.817V313ZM175.538 313H165.24V227.5H175.538V313ZM192.293 307.601C192.293 305.819 192.812 304.335 193.852 303.147C194.928 301.96 196.523 301.366 198.639 301.366C200.754 301.366 202.35 301.96 203.426 303.147C204.539 304.335 205.096 305.819 205.096 307.601C205.096 309.308 204.539 310.736 203.426 311.887C202.35 313.037 200.754 313.612 198.639 313.612C196.523 313.612 194.928 313.037 193.852 311.887C192.812 310.736 192.293 309.308 192.293 307.601Z" fill="#888888"/>
<path d="M330.861 297.024C330.861 294.241 329.804 292.089 327.688 290.567C325.61 289.009 321.955 287.673 316.723 286.56C311.527 285.446 307.39 284.11 304.31 282.552C301.267 280.993 299.003 279.138 297.519 276.985C296.071 274.833 295.348 272.272 295.348 269.304C295.348 264.368 297.426 260.193 301.582 256.779C305.775 253.365 311.119 251.658 317.613 251.658C324.441 251.658 329.971 253.421 334.201 256.946C338.469 260.472 340.603 264.98 340.603 270.473H330.249C330.249 267.652 329.043 265.222 326.631 263.181C324.256 261.14 321.25 260.119 317.613 260.119C313.865 260.119 310.934 260.936 308.818 262.568C306.703 264.201 305.646 266.335 305.646 268.97C305.646 271.456 306.629 273.33 308.596 274.592C310.562 275.854 314.106 277.06 319.228 278.21C324.386 279.36 328.561 280.733 331.752 282.329C334.943 283.925 337.3 285.854 338.821 288.118C340.38 290.345 341.159 293.072 341.159 296.301C341.159 301.682 339.007 306.005 334.702 309.271C330.397 312.499 324.812 314.113 317.947 314.113C313.123 314.113 308.855 313.26 305.145 311.553C301.434 309.846 298.521 307.471 296.405 304.428C294.327 301.348 293.288 298.026 293.288 294.464H303.586C303.771 297.915 305.145 300.661 307.705 302.702C310.303 304.706 313.717 305.708 317.947 305.708C321.844 305.708 324.961 304.929 327.299 303.37C329.674 301.774 330.861 299.659 330.861 297.024ZM368.546 238.188V252.771H379.79V260.731H368.546V298.082C368.546 300.494 369.047 302.312 370.049 303.537C371.051 304.725 372.758 305.318 375.17 305.318C376.357 305.318 377.99 305.096 380.068 304.65V313C377.359 313.742 374.725 314.113 372.164 314.113C367.562 314.113 364.093 312.722 361.755 309.938C359.417 307.155 358.248 303.203 358.248 298.082V260.731H347.282V252.771H358.248V238.188H368.546ZM429.053 313C428.459 311.812 427.977 309.697 427.605 306.654C422.818 311.627 417.104 314.113 410.461 314.113C404.523 314.113 399.644 312.443 395.821 309.104C392.036 305.727 390.144 301.459 390.144 296.301C390.144 290.029 392.519 285.168 397.269 281.717C402.056 278.229 408.772 276.484 417.419 276.484H427.438V271.753C427.438 268.153 426.362 265.296 424.21 263.181C422.058 261.028 418.885 259.952 414.691 259.952C411.018 259.952 407.938 260.88 405.451 262.735C402.965 264.591 401.722 266.836 401.722 269.471H391.368C391.368 266.465 392.426 263.57 394.541 260.787C396.693 257.967 399.588 255.74 403.225 254.107C406.898 252.475 410.925 251.658 415.304 251.658C422.243 251.658 427.68 253.402 431.613 256.891C435.547 260.342 437.588 265.11 437.736 271.196V298.917C437.736 304.446 438.441 308.844 439.852 312.109V313H429.053ZM411.964 305.151C415.192 305.151 418.254 304.316 421.148 302.646C424.043 300.977 426.14 298.806 427.438 296.134V283.776H419.367C406.75 283.776 400.441 287.469 400.441 294.854C400.441 298.082 401.518 300.605 403.67 302.424C405.822 304.242 408.587 305.151 411.964 305.151ZM482.991 262.012C481.433 261.752 479.744 261.622 477.926 261.622C471.172 261.622 466.589 264.498 464.177 270.25V313H453.879V252.771H463.898L464.065 259.729C467.442 254.349 472.229 251.658 478.427 251.658C480.431 251.658 481.952 251.918 482.991 252.438V262.012ZM509.265 238.188V252.771H520.509V260.731H509.265V298.082C509.265 300.494 509.766 302.312 510.768 303.537C511.77 304.725 513.477 305.318 515.889 305.318C517.076 305.318 518.709 305.096 520.787 304.65V313C518.078 313.742 515.443 314.113 512.883 314.113C508.281 314.113 504.812 312.722 502.474 309.938C500.136 307.155 498.967 303.203 498.967 298.082V260.731H488.001V252.771H498.967V238.188H509.265ZM595.934 297.024C595.934 294.241 594.876 292.089 592.761 290.567C590.683 289.009 587.027 287.673 581.795 286.56C576.6 285.446 572.462 284.11 569.382 282.552C566.339 280.993 564.075 279.138 562.591 276.985C561.144 274.833 560.42 272.272 560.42 269.304C560.42 264.368 562.498 260.193 566.654 256.779C570.848 253.365 576.191 251.658 582.686 251.658C589.514 251.658 595.043 253.421 599.273 256.946C603.541 260.472 605.675 264.98 605.675 270.473H595.321C595.321 267.652 594.115 265.222 591.703 263.181C589.328 261.14 586.322 260.119 582.686 260.119C578.938 260.119 576.006 260.936 573.891 262.568C571.775 264.201 570.718 266.335 570.718 268.97C570.718 271.456 571.701 273.33 573.668 274.592C575.635 275.854 579.179 277.06 584.3 278.21C589.458 279.36 593.633 280.733 596.824 282.329C600.016 283.925 602.372 285.854 603.894 288.118C605.452 290.345 606.231 293.072 606.231 296.301C606.231 301.682 604.079 306.005 599.774 309.271C595.47 312.499 589.885 314.113 583.02 314.113C578.195 314.113 573.928 313.26 570.217 311.553C566.506 309.846 563.593 307.471 561.478 304.428C559.399 301.348 558.36 298.026 558.36 294.464H568.658C568.844 297.915 570.217 300.661 572.777 302.702C575.375 304.706 578.789 305.708 583.02 305.708C586.916 305.708 590.033 304.929 592.371 303.37C594.746 301.774 595.934 299.659 595.934 297.024ZM629.332 252.771L629.61 259.451C634.026 254.256 639.982 251.658 647.479 251.658C655.902 251.658 661.636 254.887 664.679 261.344C666.683 258.449 669.28 256.111 672.472 254.33C675.7 252.549 679.504 251.658 683.883 251.658C697.094 251.658 703.811 258.653 704.033 272.644V313H693.735V273.256C693.735 268.951 692.752 265.741 690.785 263.626C688.818 261.474 685.516 260.397 680.877 260.397C677.055 260.397 673.882 261.548 671.358 263.849C668.835 266.112 667.369 269.174 666.961 273.033V313H656.607V273.534C656.607 264.776 652.321 260.397 643.749 260.397C636.995 260.397 632.375 263.273 629.889 269.025V313H619.591V252.771H629.332ZM756.803 313C756.209 311.812 755.727 309.697 755.355 306.654C750.568 311.627 744.854 314.113 738.211 314.113C732.273 314.113 727.394 312.443 723.571 309.104C719.786 305.727 717.894 301.459 717.894 296.301C717.894 290.029 720.269 285.168 725.019 281.717C729.806 278.229 736.522 276.484 745.169 276.484H755.188V271.753C755.188 268.153 754.112 265.296 751.96 263.181C749.808 261.028 746.635 259.952 742.441 259.952C738.768 259.952 735.688 260.88 733.201 262.735C730.715 264.591 729.472 266.836 729.472 269.471H719.118C719.118 266.465 720.176 263.57 722.291 260.787C724.443 257.967 727.338 255.74 730.975 254.107C734.648 252.475 738.675 251.658 743.054 251.658C749.993 251.658 755.43 253.402 759.363 256.891C763.297 260.342 765.338 265.11 765.486 271.196V298.917C765.486 304.446 766.191 308.844 767.602 312.109V313H756.803ZM739.714 305.151C742.942 305.151 746.004 304.316 748.898 302.646C751.793 300.977 753.89 298.806 755.188 296.134V283.776H747.117C734.5 283.776 728.191 287.469 728.191 294.854C728.191 298.082 729.268 300.605 731.42 302.424C733.572 304.242 736.337 305.151 739.714 305.151ZM792.817 313H782.52V227.5H792.817V313ZM820.538 313H810.24V227.5H820.538V313ZM837.293 307.601C837.293 305.819 837.812 304.335 838.852 303.147C839.928 301.96 841.523 301.366 843.639 301.366C845.754 301.366 847.35 301.96 848.426 303.147C849.539 304.335 850.096 305.819 850.096 307.601C850.096 309.308 849.539 310.736 848.426 311.887C847.35 313.037 845.754 313.612 843.639 313.612C841.523 313.612 839.928 313.037 838.852 311.887C837.812 310.736 837.293 309.308 837.293 307.601Z" fill="#888888"/>
<path d="M975.861 297.024C975.861 294.241 974.804 292.089 972.688 290.567C970.61 289.009 966.955 287.673 961.723 286.56C956.527 285.446 952.39 284.11 949.31 282.552C946.267 280.993 944.003 279.138 942.519 276.985C941.071 274.833 940.348 272.272 940.348 269.304C940.348 264.368 942.426 260.193 946.582 256.779C950.775 253.365 956.119 251.658 962.613 251.658C969.441 251.658 974.971 253.421 979.201 256.946C983.469 260.472 985.603 264.98 985.603 270.473H975.249C975.249 267.652 974.043 265.222 971.631 263.181C969.256 261.14 966.25 260.119 962.613 260.119C958.865 260.119 955.934 260.936 953.818 262.568C951.703 264.201 950.646 266.335 950.646 268.97C950.646 271.456 951.629 273.33 953.596 274.592C955.562 275.854 959.106 277.06 964.228 278.21C969.386 279.36 973.561 280.733 976.752 282.329C979.943 283.925 982.3 285.854 983.821 288.118C985.38 290.345 986.159 293.072 986.159 296.301C986.159 301.682 984.007 306.005 979.702 309.271C975.397 312.499 969.812 314.113 962.947 314.113C958.123 314.113 953.855 313.26 950.145 311.553C946.434 309.846 943.521 307.471 941.405 304.428C939.327 301.348 938.288 298.026 938.288 294.464H948.586C948.771 297.915 950.145 300.661 952.705 302.702C955.303 304.706 958.717 305.708 962.947 305.708C966.844 305.708 969.961 304.929 972.299 303.37C974.674 301.774 975.861 299.659 975.861 297.024ZM1013.55 238.188V252.771H1024.79V260.731H1013.55V298.082C1013.55 300.494 1014.05 302.312 1015.05 303.537C1016.05 304.725 1017.76 305.318 1020.17 305.318C1021.36 305.318 1022.99 305.096 1025.07 304.65V313C1022.36 313.742 1019.72 314.113 1017.16 314.113C1012.56 314.113 1009.09 312.722 1006.75 309.938C1004.42 307.155 1003.25 303.203 1003.25 298.082V260.731H992.282V252.771H1003.25V238.188H1013.55ZM1074.05 313C1073.46 311.812 1072.98 309.697 1072.61 306.654C1067.82 311.627 1062.1 314.113 1055.46 314.113C1049.52 314.113 1044.64 312.443 1040.82 309.104C1037.04 305.727 1035.14 301.459 1035.14 296.301C1035.14 290.029 1037.52 285.168 1042.27 281.717C1047.06 278.229 1053.77 276.484 1062.42 276.484H1072.44V271.753C1072.44 268.153 1071.36 265.296 1069.21 263.181C1067.06 261.028 1063.88 259.952 1059.69 259.952C1056.02 259.952 1052.94 260.88 1050.45 262.735C1047.96 264.591 1046.72 266.836 1046.72 269.471H1036.37C1036.37 266.465 1037.43 263.57 1039.54 260.787C1041.69 257.967 1044.59 255.74 1048.22 254.107C1051.9 252.475 1055.92 251.658 1060.3 251.658C1067.24 251.658 1072.68 253.402 1076.61 256.891C1080.55 260.342 1082.59 265.11 1082.74 271.196V298.917C1082.74 304.446 1083.44 308.844 1084.85 312.109V313H1074.05ZM1056.96 305.151C1060.19 305.151 1063.25 304.316 1066.15 302.646C1069.04 300.977 1071.14 298.806 1072.44 296.134V283.776H1064.37C1051.75 283.776 1045.44 287.469 1045.44 294.854C1045.44 298.082 1046.52 300.605 1048.67 302.424C1050.82 304.242 1053.59 305.151 1056.96 305.151ZM1127.99 262.012C1126.43 261.752 1124.74 261.622 1122.93 261.622C1116.17 261.622 1111.59 264.498 1109.18 270.25V313H1098.88V252.771H1108.9L1109.07 259.729C1112.44 254.349 1117.23 251.658 1123.43 251.658C1125.43 251.658 1126.95 251.918 1127.99 252.438V262.012ZM1154.26 238.188V252.771H1165.51V260.731H1154.26V298.082C1154.26 300.494 1154.77 302.312 1155.77 303.537C1156.77 304.725 1158.48 305.318 1160.89 305.318C1162.08 305.318 1163.71 305.096 1165.79 304.65V313C1163.08 313.742 1160.44 314.113 1157.88 314.113C1153.28 314.113 1149.81 312.722 1147.47 309.938C1145.14 307.155 1143.97 303.203 1143.97 298.082V260.731H1133V252.771H1143.97V238.188H1154.26ZM1240.93 297.024C1240.93 294.241 1239.88 292.089 1237.76 290.567C1235.68 289.009 1232.03 287.673 1226.79 286.56C1221.6 285.446 1217.46 284.11 1214.38 282.552C1211.34 280.993 1209.08 279.138 1207.59 276.985C1206.14 274.833 1205.42 272.272 1205.42 269.304C1205.42 264.368 1207.5 260.193 1211.65 256.779C1215.85 253.365 1221.19 251.658 1227.69 251.658C1234.51 251.658 1240.04 253.421 1244.27 256.946C1248.54 260.472 1250.67 264.98 1250.67 270.473H1240.32C1240.32 267.652 1239.12 265.222 1236.7 263.181C1234.33 261.14 1231.32 260.119 1227.69 260.119C1223.94 260.119 1221.01 260.936 1218.89 262.568C1216.78 264.201 1215.72 266.335 1215.72 268.97C1215.72 271.456 1216.7 273.33 1218.67 274.592C1220.63 275.854 1224.18 277.06 1229.3 278.21C1234.46 279.36 1238.63 280.733 1241.82 282.329C1245.02 283.925 1247.37 285.854 1248.89 288.118C1250.45 290.345 1251.23 293.072 1251.23 296.301C1251.23 301.682 1249.08 306.005 1244.77 309.271C1240.47 312.499 1234.88 314.113 1228.02 314.113C1223.2 314.113 1218.93 313.26 1215.22 311.553C1211.51 309.846 1208.59 307.471 1206.48 304.428C1204.4 301.348 1203.36 298.026 1203.36 294.464H1213.66C1213.84 297.915 1215.22 300.661 1217.78 302.702C1220.38 304.706 1223.79 305.708 1228.02 305.708C1231.92 305.708 1235.03 304.929 1237.37 303.37C1239.75 301.774 1240.93 299.659 1240.93 297.024ZM1274.33 252.771L1274.61 259.451C1279.03 254.256 1284.98 251.658 1292.48 251.658C1300.9 251.658 1306.64 254.887 1309.68 261.344C1311.68 258.449 1314.28 256.111 1317.47 254.33C1320.7 252.549 1324.5 251.658 1328.88 251.658C1342.09 251.658 1348.81 258.653 1349.03 272.644V313H1338.74V273.256C1338.74 268.951 1337.75 265.741 1335.79 263.626C1333.82 261.474 1330.52 260.397 1325.88 260.397C1322.05 260.397 1318.88 261.548 1316.36 263.849C1313.83 266.112 1312.37 269.174 1311.96 273.033V313H1301.61V273.534C1301.61 264.776 1297.32 260.397 1288.75 260.397C1282 260.397 1277.38 263.273 1274.89 269.025V313H1264.59V252.771H1274.33ZM1401.8 313C1401.21 311.812 1400.73 309.697 1400.36 306.654C1395.57 311.627 1389.85 314.113 1383.21 314.113C1377.27 314.113 1372.39 312.443 1368.57 309.104C1364.79 305.727 1362.89 301.459 1362.89 296.301C1362.89 290.029 1365.27 285.168 1370.02 281.717C1374.81 278.229 1381.52 276.484 1390.17 276.484H1400.19V271.753C1400.19 268.153 1399.11 265.296 1396.96 263.181C1394.81 261.028 1391.63 259.952 1387.44 259.952C1383.77 259.952 1380.69 260.88 1378.2 262.735C1375.71 264.591 1374.47 266.836 1374.47 269.471H1364.12C1364.12 266.465 1365.18 263.57 1367.29 260.787C1369.44 257.967 1372.34 255.74 1375.97 254.107C1379.65 252.475 1383.67 251.658 1388.05 251.658C1394.99 251.658 1400.43 253.402 1404.36 256.891C1408.3 260.342 1410.34 265.11 1410.49 271.196V298.917C1410.49 304.446 1411.19 308.844 1412.6 312.109V313H1401.8ZM1384.71 305.151C1387.94 305.151 1391 304.316 1393.9 302.646C1396.79 300.977 1398.89 298.806 1400.19 296.134V283.776H1392.12C1379.5 283.776 1373.19 287.469 1373.19 294.854C1373.19 298.082 1374.27 300.605 1376.42 302.424C1378.57 304.242 1381.34 305.151 1384.71 305.151ZM1437.82 313H1427.52V227.5H1437.82V313ZM1465.54 313H1455.24V227.5H1465.54V313ZM1482.29 307.601C1482.29 305.819 1482.81 304.335 1483.85 303.147C1484.93 301.96 1486.52 301.366 1488.64 301.366C1490.75 301.366 1492.35 301.96 1493.43 303.147C1494.54 304.335 1495.1 305.819 1495.1 307.601C1495.1 309.308 1494.54 310.736 1493.43 311.887C1492.35 313.037 1490.75 313.612 1488.64 313.612C1486.52 313.612 1484.93 313.037 1483.85 311.887C1482.81 310.736 1482.29 309.308 1482.29 307.601Z" fill="black"/>
</g>
<g clip-path="url(#clip2_1_1748)">
<path d="M-229.521 442.771L-229.243 449.451C-224.827 444.256 -218.871 441.658 -211.375 441.658C-202.951 441.658 -197.218 444.887 -194.175 451.344C-192.171 448.449 -189.573 446.111 -186.382 444.33C-183.153 442.549 -179.35 441.658 -174.971 441.658C-161.76 441.658 -155.043 448.653 -154.82 462.644V503H-165.118V463.256C-165.118 458.951 -166.102 455.741 -168.068 453.626C-170.035 451.474 -173.338 450.397 -177.977 450.397C-181.799 450.397 -184.972 451.548 -187.495 453.849C-190.019 456.112 -191.484 459.174 -191.893 463.033V503H-202.246V463.534C-202.246 454.776 -206.532 450.397 -215.104 450.397C-221.858 450.397 -226.479 453.273 -228.965 459.025V503H-239.263V442.771H-229.521ZM-141.962 472.329C-141.962 466.429 -140.812 461.122 -138.511 456.409C-136.173 451.696 -132.944 448.06 -128.825 445.499C-124.669 442.938 -119.938 441.658 -114.631 441.658C-106.43 441.658 -99.8057 444.497 -94.7588 450.175C-89.6748 455.853 -87.1328 463.404 -87.1328 472.83V473.554C-87.1328 479.417 -88.2646 484.687 -90.5283 489.362C-92.7549 494.001 -95.9648 497.619 -100.158 500.217C-104.314 502.814 -109.102 504.113 -114.52 504.113C-122.684 504.113 -129.308 501.274 -134.392 495.597C-139.438 489.919 -141.962 482.404 -141.962 473.053V472.329ZM-131.608 473.554C-131.608 480.233 -130.068 485.596 -126.988 489.641C-123.871 493.686 -119.715 495.708 -114.52 495.708C-109.287 495.708 -105.131 493.667 -102.051 489.585C-98.9707 485.466 -97.4307 479.714 -97.4307 472.329C-97.4307 465.724 -99.0078 460.38 -102.162 456.298C-105.279 452.179 -109.436 450.119 -114.631 450.119C-119.715 450.119 -123.815 452.142 -126.933 456.187C-130.05 460.231 -131.608 466.021 -131.608 473.554ZM-55.2373 489.028L-40.3193 442.771H-29.7988L-51.3965 503H-59.2451L-81.0654 442.771H-70.5449L-55.2373 489.028ZM4.32324 504.113C-3.84082 504.113 -10.4834 501.441 -15.6045 496.098C-20.7256 490.717 -23.2861 483.536 -23.2861 474.556V472.663C-23.2861 466.688 -22.1543 461.363 -19.8906 456.688C-17.5898 451.975 -14.3984 448.301 -10.3164 445.666C-6.19727 442.994 -1.74414 441.658 3.04297 441.658C10.873 441.658 16.959 444.237 21.3008 449.396C25.6426 454.554 27.8135 461.938 27.8135 471.55V475.836H-12.9883C-12.8398 481.773 -11.1143 486.579 -7.81152 490.253C-4.47168 493.89 -0.241211 495.708 4.87988 495.708C8.5166 495.708 11.5967 494.966 14.1201 493.481C16.6436 491.997 18.8516 490.03 20.7441 487.581L27.0342 492.479C21.9873 500.235 14.417 504.113 4.32324 504.113ZM3.04297 450.119C-1.11328 450.119 -4.60156 451.641 -7.42188 454.684C-10.2422 457.689 -11.9863 461.92 -12.6543 467.375H17.5156V466.596C17.2188 461.363 15.8086 457.318 13.2852 454.461C10.7617 451.566 7.34766 450.119 3.04297 450.119ZM103.127 487.024C103.127 484.241 102.069 482.089 99.9541 480.567C97.876 479.009 94.2207 477.673 88.9883 476.56C83.793 475.446 79.6553 474.11 76.5752 472.552C73.5322 470.993 71.2686 469.138 69.7842 466.985C68.3369 464.833 67.6133 462.272 67.6133 459.304C67.6133 454.368 69.6914 450.193 73.8477 446.779C78.041 443.365 83.3848 441.658 89.8789 441.658C96.707 441.658 102.236 443.421 106.467 446.946C110.734 450.472 112.868 454.98 112.868 460.473H102.515C102.515 457.652 101.309 455.222 98.8965 453.181C96.5215 451.14 93.5156 450.119 89.8789 450.119C86.1309 450.119 83.1992 450.936 81.084 452.568C78.9688 454.201 77.9111 456.335 77.9111 458.97C77.9111 461.456 78.8945 463.33 80.8613 464.592C82.8281 465.854 86.3721 467.06 91.4932 468.21C96.6514 469.36 100.826 470.733 104.018 472.329C107.209 473.925 109.565 475.854 111.087 478.118C112.646 480.345 113.425 483.072 113.425 486.301C113.425 491.682 111.272 496.005 106.968 499.271C102.663 502.499 97.0781 504.113 90.2129 504.113C85.3887 504.113 81.1211 503.26 77.4102 501.553C73.6992 499.846 70.7861 497.471 68.6709 494.428C66.5928 491.348 65.5537 488.026 65.5537 484.464H75.8516C76.0371 487.915 77.4102 490.661 79.9707 492.702C82.5684 494.706 85.9824 495.708 90.2129 495.708C94.1094 495.708 97.2266 494.929 99.5645 493.37C101.939 491.774 103.127 489.659 103.127 487.024ZM136.525 442.771L136.804 449.451C141.22 444.256 147.176 441.658 154.672 441.658C163.096 441.658 168.829 444.887 171.872 451.344C173.876 448.449 176.474 446.111 179.665 444.33C182.894 442.549 186.697 441.658 191.076 441.658C204.287 441.658 211.004 448.653 211.227 462.644V503H200.929V463.256C200.929 458.951 199.945 455.741 197.979 453.626C196.012 451.474 192.709 450.397 188.07 450.397C184.248 450.397 181.075 451.548 178.552 453.849C176.028 456.112 174.562 459.174 174.154 463.033V503H163.801V463.534C163.801 454.776 159.515 450.397 150.942 450.397C144.188 450.397 139.568 453.273 137.082 459.025V503H126.784V442.771H136.525ZM263.996 503C263.402 501.812 262.92 499.697 262.549 496.654C257.762 501.627 252.047 504.113 245.404 504.113C239.467 504.113 234.587 502.443 230.765 499.104C226.979 495.727 225.087 491.459 225.087 486.301C225.087 480.029 227.462 475.168 232.212 471.717C236.999 468.229 243.716 466.484 252.362 466.484H262.382V461.753C262.382 458.153 261.306 455.296 259.153 453.181C257.001 451.028 253.828 449.952 249.635 449.952C245.961 449.952 242.881 450.88 240.395 452.735C237.908 454.591 236.665 456.836 236.665 459.471H226.312C226.312 456.465 227.369 453.57 229.484 450.787C231.637 447.967 234.531 445.74 238.168 444.107C241.842 442.475 245.868 441.658 250.247 441.658C257.187 441.658 262.623 443.402 266.557 446.891C270.49 450.342 272.531 455.11 272.68 461.196V488.917C272.68 494.446 273.385 498.844 274.795 502.109V503H263.996ZM246.907 495.151C250.136 495.151 253.197 494.316 256.092 492.646C258.986 490.977 261.083 488.806 262.382 486.134V473.776H254.311C241.693 473.776 235.385 477.469 235.385 484.854C235.385 488.082 236.461 490.605 238.613 492.424C240.766 494.242 243.53 495.151 246.907 495.151ZM317.935 452.012C316.376 451.752 314.688 451.622 312.869 451.622C306.115 451.622 301.532 454.498 299.12 460.25V503H288.822V442.771H298.842L299.009 449.729C302.386 444.349 307.173 441.658 313.37 441.658C315.374 441.658 316.896 441.918 317.935 442.438V452.012ZM344.208 428.188V442.771H355.452V450.731H344.208V488.082C344.208 490.494 344.709 492.312 345.711 493.537C346.713 494.725 348.42 495.318 350.832 495.318C352.02 495.318 353.652 495.096 355.73 494.65V503C353.021 503.742 350.387 504.113 347.826 504.113C343.225 504.113 339.755 502.722 337.417 499.938C335.079 497.155 333.91 493.203 333.91 488.082V450.731H322.944V442.771H333.91V428.188H344.208ZM367.754 497.601C367.754 495.819 368.273 494.335 369.312 493.147C370.389 491.96 371.984 491.366 374.1 491.366C376.215 491.366 377.811 491.96 378.887 493.147C380 494.335 380.557 495.819 380.557 497.601C380.557 499.308 380 500.736 378.887 501.887C377.811 503.037 376.215 503.612 374.1 503.612C371.984 503.612 370.389 503.037 369.312 501.887C368.273 500.736 367.754 499.308 367.754 497.601Z" fill="#888888"/>
<path d="M489.479 442.771L489.757 449.451C494.173 444.256 500.129 441.658 507.625 441.658C516.049 441.658 521.782 444.887 524.825 451.344C526.829 448.449 529.427 446.111 532.618 444.33C535.847 442.549 539.65 441.658 544.029 441.658C557.24 441.658 563.957 448.653 564.18 462.644V503H553.882V463.256C553.882 458.951 552.898 455.741 550.932 453.626C548.965 451.474 545.662 450.397 541.023 450.397C537.201 450.397 534.028 451.548 531.505 453.849C528.981 456.112 527.516 459.174 527.107 463.033V503H516.754V463.534C516.754 454.776 512.468 450.397 503.896 450.397C497.142 450.397 492.521 453.273 490.035 459.025V503H479.737V442.771H489.479ZM577.038 472.329C577.038 466.429 578.188 461.122 580.489 456.409C582.827 451.696 586.056 448.06 590.175 445.499C594.331 442.938 599.062 441.658 604.369 441.658C612.57 441.658 619.194 444.497 624.241 450.175C629.325 455.853 631.867 463.404 631.867 472.83V473.554C631.867 479.417 630.735 484.687 628.472 489.362C626.245 494.001 623.035 497.619 618.842 500.217C614.686 502.814 609.898 504.113 604.48 504.113C596.316 504.113 589.692 501.274 584.608 495.597C579.562 489.919 577.038 482.404 577.038 473.053V472.329ZM587.392 473.554C587.392 480.233 588.932 485.596 592.012 489.641C595.129 493.686 599.285 495.708 604.48 495.708C609.713 495.708 613.869 493.667 616.949 489.585C620.029 485.466 621.569 479.714 621.569 472.329C621.569 465.724 619.992 460.38 616.838 456.298C613.721 452.179 609.564 450.119 604.369 450.119C599.285 450.119 595.185 452.142 592.067 456.187C588.95 460.231 587.392 466.021 587.392 473.554ZM663.763 489.028L678.681 442.771H689.201L667.604 503H659.755L637.935 442.771H648.455L663.763 489.028ZM723.323 504.113C715.159 504.113 708.517 501.441 703.396 496.098C698.274 490.717 695.714 483.536 695.714 474.556V472.663C695.714 466.688 696.846 461.363 699.109 456.688C701.41 451.975 704.602 448.301 708.684 445.666C712.803 442.994 717.256 441.658 722.043 441.658C729.873 441.658 735.959 444.237 740.301 449.396C744.643 454.554 746.813 461.938 746.813 471.55V475.836H706.012C706.16 481.773 707.886 486.579 711.188 490.253C714.528 493.89 718.759 495.708 723.88 495.708C727.517 495.708 730.597 494.966 733.12 493.481C735.644 491.997 737.852 490.03 739.744 487.581L746.034 492.479C740.987 500.235 733.417 504.113 723.323 504.113ZM722.043 450.119C717.887 450.119 714.398 451.641 711.578 454.684C708.758 457.689 707.014 461.92 706.346 467.375H736.516V466.596C736.219 461.363 734.809 457.318 732.285 454.461C729.762 451.566 726.348 450.119 722.043 450.119ZM822.127 487.024C822.127 484.241 821.069 482.089 818.954 480.567C816.876 479.009 813.221 477.673 807.988 476.56C802.793 475.446 798.655 474.11 795.575 472.552C792.532 470.993 790.269 469.138 788.784 466.985C787.337 464.833 786.613 462.272 786.613 459.304C786.613 454.368 788.691 450.193 792.848 446.779C797.041 443.365 802.385 441.658 808.879 441.658C815.707 441.658 821.236 443.421 825.467 446.946C829.734 450.472 831.868 454.98 831.868 460.473H821.515C821.515 457.652 820.309 455.222 817.896 453.181C815.521 451.14 812.516 450.119 808.879 450.119C805.131 450.119 802.199 450.936 800.084 452.568C797.969 454.201 796.911 456.335 796.911 458.97C796.911 461.456 797.895 463.33 799.861 464.592C801.828 465.854 805.372 467.06 810.493 468.21C815.651 469.36 819.826 470.733 823.018 472.329C826.209 473.925 828.565 475.854 830.087 478.118C831.646 480.345 832.425 483.072 832.425 486.301C832.425 491.682 830.272 496.005 825.968 499.271C821.663 502.499 816.078 504.113 809.213 504.113C804.389 504.113 800.121 503.26 796.41 501.553C792.699 499.846 789.786 497.471 787.671 494.428C785.593 491.348 784.554 488.026 784.554 484.464H794.852C795.037 487.915 796.41 490.661 798.971 492.702C801.568 494.706 804.982 495.708 809.213 495.708C813.109 495.708 816.227 494.929 818.564 493.37C820.939 491.774 822.127 489.659 822.127 487.024ZM855.525 442.771L855.804 449.451C860.22 444.256 866.176 441.658 873.672 441.658C882.096 441.658 887.829 444.887 890.872 451.344C892.876 448.449 895.474 446.111 898.665 444.33C901.894 442.549 905.697 441.658 910.076 441.658C923.287 441.658 930.004 448.653 930.227 462.644V503H919.929V463.256C919.929 458.951 918.945 455.741 916.979 453.626C915.012 451.474 911.709 450.397 907.07 450.397C903.248 450.397 900.075 451.548 897.552 453.849C895.028 456.112 893.562 459.174 893.154 463.033V503H882.801V463.534C882.801 454.776 878.515 450.397 869.942 450.397C863.188 450.397 858.568 453.273 856.082 459.025V503H845.784V442.771H855.525ZM982.996 503C982.402 501.812 981.92 499.697 981.549 496.654C976.762 501.627 971.047 504.113 964.404 504.113C958.467 504.113 953.587 502.443 949.765 499.104C945.979 495.727 944.087 491.459 944.087 486.301C944.087 480.029 946.462 475.168 951.212 471.717C955.999 468.229 962.716 466.484 971.362 466.484H981.382V461.753C981.382 458.153 980.306 455.296 978.153 453.181C976.001 451.028 972.828 449.952 968.635 449.952C964.961 449.952 961.881 450.88 959.395 452.735C956.908 454.591 955.665 456.836 955.665 459.471H945.312C945.312 456.465 946.369 453.57 948.484 450.787C950.637 447.967 953.531 445.74 957.168 444.107C960.842 442.475 964.868 441.658 969.247 441.658C976.187 441.658 981.623 443.402 985.557 446.891C989.49 450.342 991.531 455.11 991.68 461.196V488.917C991.68 494.446 992.385 498.844 993.795 502.109V503H982.996ZM965.907 495.151C969.136 495.151 972.197 494.316 975.092 492.646C977.986 490.977 980.083 488.806 981.382 486.134V473.776H973.311C960.693 473.776 954.385 477.469 954.385 484.854C954.385 488.082 955.461 490.605 957.613 492.424C959.766 494.242 962.53 495.151 965.907 495.151ZM1036.93 452.012C1035.38 451.752 1033.69 451.622 1031.87 451.622C1025.12 451.622 1020.53 454.498 1018.12 460.25V503H1007.82V442.771H1017.84L1018.01 449.729C1021.39 444.349 1026.17 441.658 1032.37 441.658C1034.37 441.658 1035.9 441.918 1036.93 442.438V452.012ZM1063.21 428.188V442.771H1074.45V450.731H1063.21V488.082C1063.21 490.494 1063.71 492.312 1064.71 493.537C1065.71 494.725 1067.42 495.318 1069.83 495.318C1071.02 495.318 1072.65 495.096 1074.73 494.65V503C1072.02 503.742 1069.39 504.113 1066.83 504.113C1062.22 504.113 1058.75 502.722 1056.42 499.938C1054.08 497.155 1052.91 493.203 1052.91 488.082V450.731H1041.94V442.771H1052.91V428.188H1063.21ZM1086.75 497.601C1086.75 495.819 1087.27 494.335 1088.31 493.147C1089.39 491.96 1090.98 491.366 1093.1 491.366C1095.21 491.366 1096.81 491.96 1097.89 493.147C1099 494.335 1099.56 495.819 1099.56 497.601C1099.56 499.308 1099 500.736 1097.89 501.887C1096.81 503.037 1095.21 503.612 1093.1 503.612C1090.98 503.612 1089.39 503.037 1088.31 501.887C1087.27 500.736 1086.75 499.308 1086.75 497.601Z" fill="#888888"/>
<path d="M1208.48 442.771L1208.76 449.451C1213.17 444.256 1219.13 441.658 1226.62 441.658C1235.05 441.658 1240.78 444.887 1243.83 451.344C1245.83 448.449 1248.43 446.111 1251.62 444.33C1254.85 442.549 1258.65 441.658 1263.03 441.658C1276.24 441.658 1282.96 448.653 1283.18 462.644V503H1272.88V463.256C1272.88 458.951 1271.9 455.741 1269.93 453.626C1267.96 451.474 1264.66 450.397 1260.02 450.397C1256.2 450.397 1253.03 451.548 1250.5 453.849C1247.98 456.112 1246.52 459.174 1246.11 463.033V503H1235.75V463.534C1235.75 454.776 1231.47 450.397 1222.9 450.397C1216.14 450.397 1211.52 453.273 1209.04 459.025V503H1198.74V442.771H1208.48ZM1296.04 472.329C1296.04 466.429 1297.19 461.122 1299.49 456.409C1301.83 451.696 1305.06 448.06 1309.17 445.499C1313.33 442.938 1318.06 441.658 1323.37 441.658C1331.57 441.658 1338.19 444.497 1343.24 450.175C1348.33 455.853 1350.87 463.404 1350.87 472.83V473.554C1350.87 479.417 1349.74 484.687 1347.47 489.362C1345.25 494.001 1342.04 497.619 1337.84 500.217C1333.69 502.814 1328.9 504.113 1323.48 504.113C1315.32 504.113 1308.69 501.274 1303.61 495.597C1298.56 489.919 1296.04 482.404 1296.04 473.053V472.329ZM1306.39 473.554C1306.39 480.233 1307.93 485.596 1311.01 489.641C1314.13 493.686 1318.29 495.708 1323.48 495.708C1328.71 495.708 1332.87 493.667 1335.95 489.585C1339.03 485.466 1340.57 479.714 1340.57 472.329C1340.57 465.724 1338.99 460.38 1335.84 456.298C1332.72 452.179 1328.56 450.119 1323.37 450.119C1318.29 450.119 1314.18 452.142 1311.07 456.187C1307.95 460.231 1306.39 466.021 1306.39 473.554ZM1382.76 489.028L1397.68 442.771H1408.2L1386.6 503H1378.75L1356.93 442.771H1367.46L1382.76 489.028ZM1442.32 504.113C1434.16 504.113 1427.52 501.441 1422.4 496.098C1417.27 490.717 1414.71 483.536 1414.71 474.556V472.663C1414.71 466.688 1415.85 461.363 1418.11 456.688C1420.41 451.975 1423.6 448.301 1427.68 445.666C1431.8 442.994 1436.26 441.658 1441.04 441.658C1448.87 441.658 1454.96 444.237 1459.3 449.396C1463.64 454.554 1465.81 461.938 1465.81 471.55V475.836H1425.01C1425.16 481.773 1426.89 486.579 1430.19 490.253C1433.53 493.89 1437.76 495.708 1442.88 495.708C1446.52 495.708 1449.6 494.966 1452.12 493.481C1454.64 491.997 1456.85 490.03 1458.74 487.581L1465.03 492.479C1459.99 500.235 1452.42 504.113 1442.32 504.113ZM1441.04 450.119C1436.89 450.119 1433.4 451.641 1430.58 454.684C1427.76 457.689 1426.01 461.92 1425.35 467.375H1455.52V466.596C1455.22 461.363 1453.81 457.318 1451.29 454.461C1448.76 451.566 1445.35 450.119 1441.04 450.119ZM1541.13 487.024C1541.13 484.241 1540.07 482.089 1537.95 480.567C1535.88 479.009 1532.22 477.673 1526.99 476.56C1521.79 475.446 1517.66 474.11 1514.58 472.552C1511.53 470.993 1509.27 469.138 1507.78 466.985C1506.34 464.833 1505.61 462.272 1505.61 459.304C1505.61 454.368 1507.69 450.193 1511.85 446.779C1516.04 443.365 1521.38 441.658 1527.88 441.658C1534.71 441.658 1540.24 443.421 1544.47 446.946C1548.73 450.472 1550.87 454.98 1550.87 460.473H1540.51C1540.51 457.652 1539.31 455.222 1536.9 453.181C1534.52 451.14 1531.52 450.119 1527.88 450.119C1524.13 450.119 1521.2 450.936 1519.08 452.568C1516.97 454.201 1515.91 456.335 1515.91 458.97C1515.91 461.456 1516.89 463.33 1518.86 464.592C1520.83 465.854 1524.37 467.06 1529.49 468.21C1534.65 469.36 1538.83 470.733 1542.02 472.329C1545.21 473.925 1547.57 475.854 1549.09 478.118C1550.65 480.345 1551.42 483.072 1551.42 486.301C1551.42 491.682 1549.27 496.005 1544.97 499.271C1540.66 502.499 1535.08 504.113 1528.21 504.113C1523.39 504.113 1519.12 503.26 1515.41 501.553C1511.7 499.846 1508.79 497.471 1506.67 494.428C1504.59 491.348 1503.55 488.026 1503.55 484.464H1513.85C1514.04 487.915 1515.41 490.661 1517.97 492.702C1520.57 494.706 1523.98 495.708 1528.21 495.708C1532.11 495.708 1535.23 494.929 1537.56 493.37C1539.94 491.774 1541.13 489.659 1541.13 487.024ZM1574.53 442.771L1574.8 449.451C1579.22 444.256 1585.18 441.658 1592.67 441.658C1601.1 441.658 1606.83 444.887 1609.87 451.344C1611.88 448.449 1614.47 446.111 1617.67 444.33C1620.89 442.549 1624.7 441.658 1629.08 441.658C1642.29 441.658 1649 448.653 1649.23 462.644V503H1638.93V463.256C1638.93 458.951 1637.95 455.741 1635.98 453.626C1634.01 451.474 1630.71 450.397 1626.07 450.397C1622.25 450.397 1619.08 451.548 1616.55 453.849C1614.03 456.112 1612.56 459.174 1612.15 463.033V503H1601.8V463.534C1601.8 454.776 1597.51 450.397 1588.94 450.397C1582.19 450.397 1577.57 453.273 1575.08 459.025V503H1564.78V442.771H1574.53ZM1702 503C1701.4 501.812 1700.92 499.697 1700.55 496.654C1695.76 501.627 1690.05 504.113 1683.4 504.113C1677.47 504.113 1672.59 502.443 1668.76 499.104C1664.98 495.727 1663.09 491.459 1663.09 486.301C1663.09 480.029 1665.46 475.168 1670.21 471.717C1675 468.229 1681.72 466.484 1690.36 466.484H1700.38V461.753C1700.38 458.153 1699.31 455.296 1697.15 453.181C1695 451.028 1691.83 449.952 1687.63 449.952C1683.96 449.952 1680.88 450.88 1678.39 452.735C1675.91 454.591 1674.67 456.836 1674.67 459.471H1664.31C1664.31 456.465 1665.37 453.57 1667.48 450.787C1669.64 447.967 1672.53 445.74 1676.17 444.107C1679.84 442.475 1683.87 441.658 1688.25 441.658C1695.19 441.658 1700.62 443.402 1704.56 446.891C1708.49 450.342 1710.53 455.11 1710.68 461.196V488.917C1710.68 494.446 1711.38 498.844 1712.79 502.109V503H1702ZM1684.91 495.151C1688.14 495.151 1691.2 494.316 1694.09 492.646C1696.99 490.977 1699.08 488.806 1700.38 486.134V473.776H1692.31C1679.69 473.776 1673.38 477.469 1673.38 484.854C1673.38 488.082 1674.46 490.605 1676.61 492.424C1678.77 494.242 1681.53 495.151 1684.91 495.151ZM1755.93 452.012C1754.38 451.752 1752.69 451.622 1750.87 451.622C1744.12 451.622 1739.53 454.498 1737.12 460.25V503H1726.82V442.771H1736.84L1737.01 449.729C1740.39 444.349 1745.17 441.658 1751.37 441.658C1753.37 441.658 1754.9 441.918 1755.93 442.438V452.012ZM1782.21 428.188V442.771H1793.45V450.731H1782.21V488.082C1782.21 490.494 1782.71 492.312 1783.71 493.537C1784.71 494.725 1786.42 495.318 1788.83 495.318C1790.02 495.318 1791.65 495.096 1793.73 494.65V503C1791.02 503.742 1788.39 504.113 1785.83 504.113C1781.22 504.113 1777.75 502.722 1775.42 499.938C1773.08 497.155 1771.91 493.203 1771.91 488.082V450.731H1760.94V442.771H1771.91V428.188H1782.21ZM1805.75 497.601C1805.75 495.819 1806.27 494.335 1807.31 493.147C1808.39 491.96 1809.98 491.366 1812.1 491.366C1814.21 491.366 1815.81 491.96 1816.89 493.147C1818 494.335 1818.56 495.819 1818.56 497.601C1818.56 499.308 1818 500.736 1816.89 501.887C1815.81 503.037 1814.21 503.612 1812.1 503.612C1809.98 503.612 1808.39 503.037 1807.31 501.887C1806.27 500.736 1805.75 499.308 1805.75 497.601Z" fill="black"/>
</g>
<path d="M1226.04 625.891L1228.36 631.691L1230.68 625.891H1231.9V633H1230.96V630.231L1231.05 627.243L1228.72 633H1228L1225.67 627.258L1225.76 630.231V633H1224.83V625.891H1226.04ZM1238.97 631.145H1235.99L1235.32 633H1234.36L1237.07 625.891H1237.89L1240.61 633H1239.65L1238.97 631.145ZM1236.27 630.373H1238.69L1237.48 627.048L1236.27 630.373ZM1244.81 629.807H1243.95V633H1243.01V625.891H1243.95V629.025H1244.68L1247.17 625.891H1248.33L1245.62 629.338L1248.53 633H1247.39L1244.81 629.807ZM1254.81 629.714H1251.73V632.233H1255.31V633H1250.79V625.891H1255.26V626.662H1251.73V628.947H1254.81V629.714ZM1262.89 626.662H1260.6V633H1259.67V626.662H1257.39V625.891H1262.89V626.662ZM1270.87 629.807H1270.01V633H1269.07V625.891H1270.01V629.025H1270.74L1273.23 625.891H1274.39L1271.68 629.338L1274.59 633H1273.44L1270.87 629.807ZM1280.78 631.145H1277.8L1277.13 633H1276.16L1278.88 625.891H1279.7L1282.42 633H1281.46L1280.78 631.145ZM1278.08 630.373H1280.5L1279.29 627.048L1278.08 630.373ZM1290.24 633H1289.3V629.714H1285.71V633H1284.78V625.891H1285.71V628.947H1289.3V625.891H1290.24V633ZM1297.32 631.145H1294.34L1293.67 633H1292.7L1295.42 625.891H1296.24L1298.96 633H1298L1297.32 631.145ZM1294.62 630.373H1297.04L1295.83 627.048L1294.62 630.373ZM1306.78 625.891V633H1305.84V626.662H1303.29L1303.17 629.479C1303.12 630.424 1303.02 631.133 1302.87 631.608C1302.73 632.084 1302.52 632.434 1302.24 632.658C1301.96 632.88 1301.58 632.993 1301.12 633H1300.81V632.233L1301 632.224C1301.31 632.201 1301.54 632.103 1301.7 631.931C1301.86 631.755 1301.99 631.477 1302.07 631.096C1302.16 630.715 1302.22 630.129 1302.25 629.338L1302.4 625.891H1306.78ZM1313.9 631.145H1310.92L1310.25 633H1309.28L1312 625.891H1312.82L1315.54 633H1314.58L1313.9 631.145ZM1311.2 630.373H1313.62L1312.41 627.048L1311.2 630.373ZM1329.44 630.549C1329.4 631.337 1329.2 631.958 1328.85 632.414C1328.5 632.87 1328.03 633.098 1327.44 633.098C1326.83 633.098 1326.44 632.824 1326.27 632.277C1326.09 632.554 1325.89 632.761 1325.66 632.897C1325.44 633.031 1325.2 633.098 1324.96 633.098C1324.5 633.098 1324.15 632.909 1323.91 632.531C1323.68 632.154 1323.59 631.631 1323.65 630.964C1323.7 630.427 1323.82 629.948 1324.02 629.528C1324.21 629.105 1324.47 628.773 1324.78 628.532C1325.09 628.291 1325.42 628.171 1325.76 628.171C1326.02 628.171 1326.26 628.207 1326.47 628.278C1326.68 628.347 1326.91 628.483 1327.17 628.688L1326.92 631.394C1326.85 632.146 1327.06 632.521 1327.54 632.521C1327.91 632.521 1328.21 632.339 1328.44 631.975C1328.66 631.61 1328.79 631.135 1328.81 630.549C1328.87 629.283 1328.63 628.317 1328.1 627.653C1327.57 626.989 1326.76 626.657 1325.67 626.657C1325.02 626.657 1324.44 626.82 1323.93 627.146C1323.42 627.468 1323.02 627.935 1322.73 628.547C1322.43 629.159 1322.27 629.865 1322.23 630.666C1322.2 631.473 1322.29 632.175 1322.53 632.771C1322.76 633.363 1323.12 633.815 1323.6 634.128C1324.08 634.444 1324.66 634.602 1325.34 634.602C1325.63 634.602 1325.93 634.566 1326.22 634.494C1326.51 634.423 1326.76 634.33 1326.96 634.216L1327.14 634.777C1326.93 634.904 1326.67 635.008 1326.33 635.09C1326 635.171 1325.66 635.212 1325.32 635.212C1324.51 635.212 1323.81 635.028 1323.22 634.66C1322.63 634.296 1322.2 633.768 1321.9 633.078C1321.61 632.391 1321.49 631.587 1321.53 630.666C1321.57 629.771 1321.77 628.967 1322.13 628.254C1322.49 627.538 1322.98 626.986 1323.6 626.599C1324.21 626.208 1324.91 626.013 1325.69 626.013C1326.5 626.013 1327.2 626.195 1327.78 626.56C1328.36 626.924 1328.79 627.45 1329.07 628.137C1329.35 628.824 1329.48 629.628 1329.44 630.549ZM1324.43 630.964C1324.38 631.426 1324.42 631.781 1324.55 632.028C1324.69 632.276 1324.9 632.399 1325.18 632.399C1325.38 632.399 1325.57 632.316 1325.74 632.15C1325.93 631.984 1326.08 631.747 1326.19 631.438L1326.2 631.394L1326.42 628.938C1326.24 628.843 1326.05 628.796 1325.84 628.796C1325.46 628.796 1325.14 628.99 1324.89 629.377C1324.64 629.764 1324.49 630.293 1324.43 630.964ZM1336.08 629.86H1333.1V633H1332.16V625.891H1336.56V626.662H1333.1V629.094H1336.08V629.86ZM1340.09 633H1339.16V625.891H1340.09V633ZM1348.46 632.067C1348.22 632.412 1347.88 632.671 1347.45 632.844C1347.02 633.013 1346.52 633.098 1345.95 633.098C1345.37 633.098 1344.85 632.963 1344.4 632.692C1343.95 632.419 1343.61 632.032 1343.36 631.53C1343.11 631.029 1342.99 630.448 1342.98 629.787V629.167C1342.98 628.096 1343.23 627.266 1343.73 626.677C1344.23 626.088 1344.93 625.793 1345.84 625.793C1346.58 625.793 1347.18 625.983 1347.63 626.364C1348.08 626.742 1348.36 627.279 1348.46 627.976H1347.52C1347.35 627.035 1346.79 626.564 1345.84 626.564C1345.22 626.564 1344.74 626.786 1344.41 627.229C1344.09 627.668 1343.93 628.306 1343.92 629.143V629.724C1343.92 630.521 1344.11 631.156 1344.47 631.628C1344.84 632.097 1345.33 632.331 1345.95 632.331C1346.3 632.331 1346.61 632.292 1346.87 632.214C1347.14 632.136 1347.36 632.004 1347.53 631.818V630.222H1345.88V629.46H1348.46V632.067ZM1352.64 625.891L1354.96 631.691L1357.29 625.891H1358.5V633H1357.57V630.231L1357.65 627.243L1355.32 633H1354.6L1352.27 627.258L1352.37 630.231V633H1351.43V625.891H1352.64ZM1365.57 631.145H1362.59L1361.92 633H1360.96L1363.67 625.891H1364.49L1367.21 633H1366.25L1365.57 631.145ZM1362.88 630.373H1365.29L1364.08 627.048L1362.88 630.373ZM1373.99 633H1369.34V632.351L1371.8 629.616C1372.16 629.203 1372.41 628.868 1372.55 628.61C1372.69 628.35 1372.76 628.081 1372.76 627.805C1372.76 627.434 1372.65 627.129 1372.42 626.892C1372.2 626.654 1371.9 626.535 1371.52 626.535C1371.07 626.535 1370.72 626.664 1370.47 626.921C1370.23 627.175 1370.1 627.53 1370.1 627.985H1369.2C1369.2 627.331 1369.41 626.802 1369.83 626.398C1370.25 625.995 1370.82 625.793 1371.52 625.793C1372.18 625.793 1372.71 625.967 1373.09 626.315C1373.47 626.66 1373.67 627.121 1373.67 627.697C1373.67 628.397 1373.22 629.23 1372.33 630.197L1370.42 632.263H1373.99V633ZM1382.05 633H1381.11V629.714H1377.52V633H1376.58V625.891H1377.52V628.947H1381.11V625.891H1382.05V633ZM1389.88 626.662H1387.59V633H1386.66V626.662H1384.38V625.891H1389.88V626.662ZM1393.55 625.891L1395.87 631.691L1398.19 625.891H1399.41V633H1398.47V630.231L1398.56 627.243L1396.23 633H1395.51L1393.18 627.258L1393.27 630.231V633H1392.33V625.891H1393.55ZM1403.41 632.233H1406.78V633H1402.46V625.891H1403.41V632.233Z" fill="#E4E4E4"/>
<defs>
<clipPath id="clip0_1_1748">
<rect width="1430" height="190" fill="white" transform="translate(5 0.671875)"/>
</clipPath>
<clipPath id="clip1_1_1748">
<rect width="1430" height="190" fill="white" transform="translate(5 190.672)"/>
</clipPath>
<clipPath id="clip2_1_1748">
<rect width="1430" height="190" fill="white" transform="translate(5 380.672)"/>
</clipPath>
</defs>
</svg>
